<mxfile host="app.diagrams.net" modified="2023-08-17T17:28:13.421Z" agent="Mozilla/5.0 (Windows NT 10.0; Win64; x64) AppleWebKit/537.36 (KHTML, like Gecko) Chrome/115.0.0.0 Safari/537.36" version="21.6.8" etag="T4QO-tyRI0q4tlqd8F8J" type="github">
  <diagram name="Сторінка-1" id="NDxOY0ueVOtZTgo4tWgs">
    <mxGraphModel>
      <root>
        <mxCell id="0" />
        <mxCell id="1" parent="0" />
      </root>
    </mxGraphModel>
  </diagram>
</mxfile>
